<svg width="64" height="54" viewBox="0 0 64 54" fill="none" xmlns="http://www.w3.org/2000/svg">
<path d="M36.6126 52.4459C36.2295 52.073 36.0145 51.5605 36.0166 51.0259L36.0166 40.6094C36.0166 39.7968 35.3578 39.1381 34.5452 39.1381L1.97145 39.1381C0.882622 39.1381 1.6287e-06 38.2554 1.58111e-06 37.1666L6.949e-07 16.8925C6.47306e-07 15.8037 0.882621 14.9211 1.97145 14.9211L34.5452 14.9211C35.3578 14.9211 36.0166 14.2623 36.0166 13.4498L36.0166 3.00385C35.996 1.91516 36.8618 1.01599 37.9503 0.99544C38.4953 0.985096 39.0203 1.20096 39.4004 1.59144L63.4115 25.6025C63.7825 25.9677 63.9941 26.4648 64 26.9855C64.0019 27.5164 63.7898 28.0255 63.4115 28.3979L39.4004 52.409C38.6408 53.189 37.3927 53.2055 36.6126 52.4459Z" fill="#EF8A03"/>
</svg>
